<svg width="40" height="40" viewBox="0 0 40 40" fill="none" xmlns="http://www.w3.org/2000/svg">
<rect x="0.5" y="0.5" width="39" height="39" rx="19.5" fill="white"/>
<g clip-path="url(#clip0_268_135)">
<path d="M31.6396 22.9029C30.0369 29.3315 23.5258 33.2438 17.0964 31.6407C10.6697 30.038 6.75733 23.5265 8.36073 17.0984C9.96271 10.669 16.4739 6.75639 22.9013 8.35908C29.3302 9.96177 33.2423 16.474 31.6394 22.903L31.6396 22.9029H31.6396Z" fill="#F7931A"/>
<path d="M25.2915 18.2903C25.5303 16.6934 24.3145 15.835 22.652 15.2623L23.1913 13.0991L21.8745 12.771L21.3495 14.8772C21.0033 14.7909 20.6478 14.7095 20.2945 14.6289L20.8233 12.5087L19.5073 12.1806L18.9677 14.3431C18.6812 14.2779 18.3999 14.2134 18.1269 14.1455L18.1284 14.1387L16.3125 13.6852L15.9622 15.0917C15.9622 15.0917 16.9392 15.3156 16.9186 15.3294C17.4518 15.4625 17.5483 15.8155 17.5322 16.0953L16.9179 18.5596C16.9546 18.569 17.0022 18.5825 17.0548 18.6036C17.0109 18.5927 16.9641 18.5808 16.9156 18.5691L16.0545 22.0214C15.9893 22.1834 15.8239 22.4265 15.4511 22.3342C15.4643 22.3533 14.494 22.0954 14.494 22.0954L13.8403 23.6027L15.5539 24.0299C15.8727 24.1098 16.1851 24.1934 16.4927 24.2721L15.9478 26.4601L17.2631 26.7882L17.8027 24.6234C18.162 24.721 18.5107 24.811 18.8521 24.8958L18.3143 27.0504L19.6312 27.3785L20.176 25.1946C22.4214 25.6195 24.1098 25.4482 24.8205 23.4172C25.3931 21.782 24.792 20.8389 23.6107 20.2238C24.4711 20.0254 25.1191 19.4595 25.2919 18.2905L25.2915 18.2902L25.2915 18.2903ZM22.2829 22.5091C21.8759 24.1443 19.1228 23.2604 18.2302 23.0387L18.9533 20.14C19.8458 20.3628 22.7082 20.8038 22.2829 22.5091H22.2829ZM22.6901 18.2666C22.3189 19.754 20.0274 18.9983 19.2841 18.813L19.9397 16.1841C20.683 16.3694 23.0768 16.7152 22.6902 18.2666H22.6901Z" fill="white"/>
</g>
<rect x="0.5" y="0.5" width="39" height="39" rx="19.5" stroke="#858585"/>
<defs>
<clipPath id="clip0_268_135">
<rect width="24" height="24" fill="white" transform="translate(8 8)"/>
</clipPath>
</defs>
</svg>
