<svg width="40" height="40" viewBox="0 0 40 40" fill="none" xmlns="http://www.w3.org/2000/svg">
<rect x="0.5" y="0.5" width="39" height="39" rx="7.5" fill="#FAFAFA"/>
<path d="M30 24.74V12.67C30 11.47 29.02 10.58 27.83 10.68H27.77C25.67 10.86 22.48 11.93 20.7 13.05L20.53 13.16C20.24 13.34 19.76 13.34 19.47 13.16L19.22 13.01C17.44 11.9 14.26 10.84 12.16 10.67C10.97 10.57 10 11.47 10 12.66V24.74C10 25.7 10.78 26.6 11.74 26.72L12.03 26.76C14.2 27.05 17.55 28.15 19.47 29.2L19.51 29.22C19.78 29.37 20.21 29.37 20.47 29.22C22.39 28.16 25.75 27.05 27.93 26.76L28.26 26.72C29.22 26.6 30 25.7 30 24.74Z" stroke="#292D32" stroke-width="1.5" stroke-linecap="round" stroke-linejoin="round"/>
<path d="M20 13.49V28.49" stroke="#292D32" stroke-width="1.5" stroke-linecap="round" stroke-linejoin="round"/>
<path d="M15.75 16.49H13.5" stroke="#292D32" stroke-width="1.5" stroke-linecap="round" stroke-linejoin="round"/>
<path d="M16.5 19.49H13.5" stroke="#292D32" stroke-width="1.5" stroke-linecap="round" stroke-linejoin="round"/>
<rect x="0.5" y="0.5" width="39" height="39" rx="7.5" stroke="black"/>
</svg>
