<svg width="32" height="32" viewBox="0 0 32 32" fill="none" xmlns="http://www.w3.org/2000/svg">
<path d="M10.6667 15.2C10.6667 16.2267 11.4667 17.0667 12.44 17.0667H14.44C15.2934 17.0667 15.9867 16.3333 15.9867 15.44C15.9867 14.4667 15.56 14.12 14.9334 13.8933L11.7334 12.7733C11.0934 12.5467 10.6667 12.2 10.6667 11.2267C10.6667 10.3333 11.36 9.6 12.2134 9.6H14.2134C15.2 9.61333 16 10.44 16 11.4667" stroke="#292D32" stroke-width="1.5" stroke-linecap="round" stroke-linejoin="round"/>
<path d="M13.3333 17.1333V18.12" stroke="#292D32" stroke-width="1.5" stroke-linecap="round" stroke-linejoin="round"/>
<path d="M13.3333 8.54667V9.58667" stroke="#292D32" stroke-width="1.5" stroke-linecap="round" stroke-linejoin="round"/>
<path d="M13.32 23.9733C19.2037 23.9733 23.9734 19.2037 23.9734 13.32C23.9734 7.43632 19.2037 2.66666 13.32 2.66666C7.43635 2.66666 2.66669 7.43632 2.66669 13.32C2.66669 19.2037 7.43635 23.9733 13.32 23.9733Z" stroke="#292D32" stroke-width="1.5" stroke-linecap="round" stroke-linejoin="round"/>
<path d="M17.3066 26.5067C18.5066 28.2 20.4666 29.3067 22.7066 29.3067C26.3466 29.3067 29.3066 26.3467 29.3066 22.7067C29.3066 20.4933 28.2133 18.5333 26.5466 17.3333" stroke="#292D32" stroke-width="1.5" stroke-linecap="round" stroke-linejoin="round"/>
</svg>
