<svg width="40" height="40" viewBox="0 0 40 40" fill="none" xmlns="http://www.w3.org/2000/svg">
<rect x="0.5" y="0.5" width="39" height="39" rx="19.5" fill="white"/>
<g clip-path="url(#clip0_265_24822)">
<path d="M17.4117 12.2888C17.1123 12.246 17.098 12.2317 17.2406 12.2175C17.5116 12.1747 18.139 12.2317 18.5811 12.3315C19.6078 12.574 20.5347 13.2014 21.5187 14.2995L21.7754 14.5989L22.1461 14.5419C23.729 14.2852 25.3547 14.4848 26.7094 15.1123C27.0802 15.2834 27.6649 15.6257 27.7362 15.7112C27.7647 15.7397 27.8075 15.9251 27.836 16.1105C27.9358 16.7807 27.893 17.2799 27.6791 17.6649C27.565 17.8788 27.565 17.9358 27.6363 18.1212C27.6934 18.2638 27.8645 18.3636 28.0214 18.3636C28.3636 18.3636 28.7201 17.8217 28.8912 17.066L28.9625 16.7665L29.0909 16.9091C29.8182 17.7219 30.3886 18.8485 30.4741 19.6471L30.5026 19.861L30.3743 19.6756C30.1604 19.3476 29.9608 19.1337 29.6898 18.9483C29.205 18.6203 28.6916 18.5205 27.3369 18.4492C26.1105 18.3779 25.4117 18.2781 24.7272 18.0499C23.5579 17.6649 22.959 17.1658 21.5757 15.3262C20.9625 14.5134 20.5775 14.0713 20.1925 13.7005C19.3511 12.8877 18.5098 12.4599 17.4117 12.2888Z" fill="#FF007A"/>
<path d="M28.0356 14.0998C28.0642 13.5579 28.1355 13.2014 28.2923 12.8734C28.3494 12.7451 28.4064 12.631 28.4207 12.631C28.4349 12.631 28.4064 12.7308 28.3636 12.8449C28.2495 13.1586 28.2353 13.6007 28.3066 14.0998C28.4064 14.7415 28.4492 14.8271 29.1337 15.5258C29.4474 15.8538 29.8182 16.2674 29.9608 16.4385L30.2032 16.7522L29.9608 16.5241C29.6613 16.2389 28.9768 15.697 28.82 15.6257C28.7201 15.5686 28.7059 15.5686 28.6346 15.6399C28.5775 15.697 28.5633 15.7825 28.5633 16.1961C28.549 16.8378 28.4635 17.2371 28.2495 17.6506C28.1355 17.8645 28.1212 17.8217 28.221 17.5793C28.2923 17.3939 28.3066 17.3084 28.3066 16.6952C28.3066 15.4545 28.164 15.1551 27.2941 14.656C27.0802 14.5276 26.7094 14.3422 26.4955 14.2424C26.2674 14.1426 26.0963 14.057 26.1105 14.057C26.139 14.0285 26.9804 14.2709 27.3084 14.4135C27.8075 14.6132 27.893 14.6274 27.9501 14.6132C27.9929 14.5704 28.0214 14.4563 28.0356 14.0998Z" fill="#FF007A"/>
<path d="M17.9964 16.2246C17.3975 15.3975 17.0125 14.1141 17.098 13.1587L17.1266 12.8592L17.2692 12.8877C17.5259 12.9305 17.9679 13.1016 18.1818 13.23C18.7522 13.5722 19.0089 14.0428 19.2513 15.2121C19.3226 15.5544 19.4225 15.9537 19.4653 16.082C19.5366 16.2959 19.8075 16.795 20.0357 17.1087C20.1925 17.3369 20.0927 17.451 19.7362 17.4225C19.1943 17.3654 18.467 16.8663 17.9964 16.2246Z" fill="#FF007A"/>
<path d="M27.3084 22.4278C24.4849 21.287 23.4866 20.303 23.4866 18.6346C23.4866 18.3921 23.5009 18.1925 23.5009 18.1925C23.5152 18.1925 23.615 18.2781 23.7433 18.3779C24.3137 18.8342 24.9554 19.0339 26.738 19.2905C27.779 19.4474 28.3779 19.5615 28.9198 19.7469C30.6453 20.3173 31.7148 21.4866 31.9715 23.0695C32.0428 23.5258 32 24.3957 31.8859 24.852C31.7861 25.2085 31.5009 25.8645 31.4296 25.8788C31.4153 25.8788 31.3868 25.8075 31.3868 25.6934C31.3583 25.0945 31.0588 24.5241 30.5597 24.082C29.9608 23.5686 29.1907 23.1836 27.3084 22.4278Z" fill="#FF007A"/>
<path d="M25.3119 22.8984C25.2834 22.6845 25.2121 22.4136 25.1693 22.2995L25.098 22.0856L25.2264 22.2424C25.4117 22.4563 25.5543 22.713 25.6827 23.0695C25.7825 23.3405 25.7825 23.426 25.7825 23.8681C25.7825 24.2959 25.7682 24.3957 25.6827 24.6382C25.5401 25.0232 25.369 25.2941 25.0838 25.5936C24.5704 26.1212 23.9002 26.4064 22.9447 26.5348C22.7736 26.549 22.2887 26.5918 21.8609 26.6203C20.7914 26.6774 20.0784 26.7915 19.4367 27.0196C19.3511 27.0481 19.2656 27.0767 19.2513 27.0624C19.2228 27.0339 19.6649 26.7772 20.0214 26.6061C20.5205 26.3636 21.0338 26.2353 22.1604 26.0357C22.7166 25.9501 23.287 25.836 23.4296 25.779C24.8413 25.3369 25.5401 24.2389 25.3119 22.8984Z" fill="#FF007A"/>
<path d="M26.6096 25.1943C26.2388 24.3815 26.1533 23.6114 26.3529 22.8841C26.3814 22.8128 26.41 22.7415 26.4385 22.7415C26.467 22.7415 26.5526 22.7843 26.6381 22.8414C26.8092 22.9554 27.1658 23.1551 28.0784 23.6542C29.2335 24.2817 29.8895 24.7665 30.3458 25.3227C30.7451 25.8075 30.9875 26.3637 31.1016 27.0481C31.1729 27.4332 31.1301 28.3601 31.0303 28.7451C30.7166 29.9572 30.0035 30.9269 28.9625 31.4831C28.8057 31.5686 28.6773 31.6257 28.6631 31.6257C28.6488 31.6257 28.7059 31.4831 28.7914 31.312C29.1337 30.5847 29.1764 29.8859 28.9198 29.1016C28.7629 28.6168 28.4349 28.0321 27.7789 27.0481C26.9946 25.9073 26.8092 25.6079 26.6096 25.1943Z" fill="#FF007A"/>
<path d="M15.9857 29.5579C17.041 28.6738 18.3387 28.0463 19.5365 27.8467C20.0499 27.7611 20.9055 27.7897 21.3761 27.918C22.1319 28.1176 22.8164 28.5455 23.1729 29.0731C23.5152 29.5864 23.672 30.0285 23.8289 31.0125C23.8859 31.3975 23.9572 31.7968 23.9715 31.8823C24.0856 32.3957 24.3137 32.795 24.5989 33.0089C25.041 33.3369 25.8111 33.3512 26.5668 33.066C26.6952 33.0232 26.8093 32.9804 26.8093 32.9946C26.8378 33.0232 26.4528 33.2799 26.1961 33.4082C25.8396 33.5936 25.5544 33.6506 25.1693 33.6506C24.4849 33.6506 23.9002 33.2941 23.4296 32.5811C23.3298 32.4385 23.1301 32.025 22.959 31.6399C22.4599 30.4848 22.2032 30.1426 21.6185 29.7576C21.1052 29.4296 20.4492 29.3583 19.9501 29.6007C19.2941 29.9144 19.123 30.7558 19.5793 31.2692C19.7647 31.4831 20.107 31.6542 20.3922 31.697C20.9198 31.7683 21.3761 31.3547 21.3761 30.8271C21.3761 30.4848 21.2478 30.2852 20.9055 30.1283C20.4492 29.9287 19.9501 30.1569 19.9644 30.5989C19.9644 30.7843 20.0499 30.8984 20.2353 30.984C20.3494 31.041 20.3494 31.041 20.2638 31.0267C19.8503 30.9412 19.7504 30.4278 20.0784 30.0998C20.4777 29.7005 21.3191 29.8717 21.6043 30.4278C21.7184 30.656 21.7326 31.1123 21.6328 31.3975C21.3904 32.025 20.7059 32.3529 20.0071 32.1676C19.5365 32.0392 19.3369 31.9109 18.7665 31.3262C17.7683 30.2995 17.3832 30.0998 15.9572 29.8859L15.6863 29.8431L15.9857 29.5579Z" fill="#FF007A"/>
<path fill-rule="evenodd" clip-rule="evenodd" d="M8.48463 6.61319C11.8073 10.6488 16.9267 16.9234 17.1834 17.2656C17.3973 17.5508 17.3117 17.8217 16.9552 18.0214C16.7556 18.1355 16.342 18.2496 16.1424 18.2496C15.9142 18.2496 15.6433 18.1355 15.4579 17.9501C15.3295 17.8217 14.7734 17.0089 13.5185 15.0553C12.5631 13.5579 11.7502 12.3173 11.736 12.303C11.6789 12.2745 11.6789 12.2745 13.4187 15.3832C14.5167 17.3369 14.8732 18.0357 14.8732 18.1212C14.8732 18.3066 14.8162 18.4064 14.588 18.6631C14.203 19.0909 14.0319 19.5758 13.9035 20.5882C13.7609 21.7148 13.3759 22.5134 12.2779 23.8681C11.6361 24.6667 11.5363 24.8093 11.3795 25.1373C11.1798 25.5365 11.1228 25.7647 11.0943 26.2781C11.0657 26.82 11.1228 27.1622 11.2796 27.6756C11.4222 28.1319 11.5791 28.4314 11.9641 29.016C12.2921 29.5294 12.4918 29.9144 12.4918 30.057C12.4918 30.1711 12.5203 30.1711 13.0336 30.057C14.26 29.7718 15.2725 29.287 15.8287 28.6881C16.1709 28.3173 16.2565 28.1176 16.2565 27.6043C16.2565 27.2763 16.2422 27.205 16.1566 27.0053C16.014 26.6916 15.7431 26.4349 15.1584 26.0357C14.3884 25.508 14.0604 25.0802 13.9748 24.5098C13.9035 24.025 13.9891 23.697 14.4169 22.7986C14.859 21.8717 14.973 21.4866 15.0443 20.5455C15.0871 19.9465 15.1584 19.7041 15.3295 19.5187C15.5149 19.3191 15.6718 19.2478 16.1139 19.1907C16.8411 19.0909 17.3117 18.9055 17.6825 18.549C18.0105 18.2496 18.1531 17.9501 18.1673 17.508L18.1816 17.18L17.9962 16.9804C17.326 16.2103 8.04256 6 7.99978 6C7.98552 6 8.21368 6.27094 8.48463 6.61319ZM12.8625 26.8913C13.0194 26.6203 12.9338 26.2781 12.6771 26.107C12.4347 25.9501 12.064 26.0214 12.064 26.2353C12.064 26.2923 12.0925 26.3494 12.178 26.3779C12.3064 26.4492 12.3206 26.5205 12.2208 26.6774C12.121 26.8342 12.121 26.9768 12.2493 27.0766C12.449 27.2335 12.7199 27.1479 12.8625 26.8913Z" fill="#FF007A"/>
<path fill-rule="evenodd" clip-rule="evenodd" d="M18.6382 19.3904C18.2959 19.4902 17.9679 19.861 17.8681 20.2317C17.8111 20.4599 17.8396 20.8735 17.9394 21.0018C18.0963 21.2014 18.2389 21.2585 18.6382 21.2585C19.4225 21.2585 20.0927 20.9162 20.164 20.5027C20.2353 20.1604 19.9359 19.6899 19.5223 19.4759C19.3084 19.3619 18.8663 19.3191 18.6382 19.3904ZM19.5508 20.1034C19.6649 19.9323 19.6221 19.7469 19.4082 19.6186C19.0232 19.3761 18.4385 19.5758 18.4385 19.9465C18.4385 20.1319 18.738 20.3316 19.0232 20.3316C19.2086 20.3316 19.4653 20.2175 19.5508 20.1034Z" fill="#FF007A"/>
</g>
<rect x="0.5" y="0.5" width="39" height="39" rx="19.5" stroke="#858585"/>
<defs>
<clipPath id="clip0_265_24822">
<rect width="24" height="27.6364" fill="white" transform="translate(8 6)"/>
</clipPath>
</defs>
</svg>
